<svg version="1.2" xmlns="http://www.w3.org/2000/svg" viewBox="0 0 474 474" width="512" height="512">
	<title>OIP</title>
	<style>
		.s0 { opacity: 1;fill: #050505 } 
	</style>
	<path id="Path 0" fill-rule="evenodd" class="s0" d="m178.5 50.1c3-0.1 3.1 0.1 7.8 13.1 2.6 7.3 5.4 15.8 6.3 18.8 0.8 3 1.5 5.6 1.7 5.8 0.1 0.2 5.4-0.3 11.7-1 6.3-0.7 20.5-1.2 31.5-1.2 11 0 25.2 0.6 31.5 1.3 6.3 0.6 11.6 1.1 11.7 0.9 0.1-0.2 1.1-3.6 2.3-7.6 1.1-3.9 3.9-12.4 10.5-30.4l7 0.7c3.9 0.3 13.6 1.9 21.8 3.6 8.1 1.6 20.9 4.9 28.5 7.4 7.5 2.5 19.6 7.4 26.7 10.9 7.1 3.6 17.3 9.3 22.5 12.8 5.2 3.4 11.7 8.5 14.4 11.3 3.5 3.5 6.6 8.5 10.7 17 3.1 6.6 8.2 18.5 11.3 26.5 3 8 8 22.6 11 32.5 3 9.9 7.3 25.2 9.5 34 2.2 8.8 5.6 23.9 7.5 33.5 2 9.6 4.5 25.4 5.7 35 1.1 9.6 2.5 18.3 3 19.2 0.5 1 0.9 13.7 0.9 28.3 0 14.6-0.3 26.5-0.7 26.5-0.5 0-1.7 1.4-2.8 3.2-1.1 1.8-4.9 6.9-8.6 11.3-3.6 4.4-10.1 11-14.5 14.6-4.3 3.6-11.3 8.9-15.4 11.6-4.1 2.8-12.2 7.5-18 10.6-5.8 3-15.9 7.8-22.5 10.5-6.6 2.7-15.6 6.1-20 7.5-4.4 1.4-11.8 3.3-16.5 4.2-4.7 1-12.5 1.8-26.1 2l-11.2-19.6c-6.2-10.8-11.4-20-11.7-20.3-0.3-0.4-7.5 0.5-16 1.9-8.5 1.4-20.7 2.9-27 3.5-6.3 0.5-17.6 1-25 1-7.4 0-18.9-0.5-25.5-1-6.6-0.6-19-2.2-27.5-3.6-12.5-2-15.6-2.3-16.2-1.2-0.4 0.7-5.6 9.9-22.4 39.3l-4 0.3c-2.1 0.2-8.2-0.2-13.4-0.8-5.2-0.7-14.7-2.7-21-4.5-6.3-1.8-17.6-5.9-25-9-7.4-3.1-18-8.2-23.5-11.2-5.5-3.1-13.1-7.6-17-10.1-3.9-2.4-10.1-7.1-14-10.2-3.9-3.1-9.7-8.8-13.1-12.6-3.4-3.8-7.9-9.6-10-12.9-2.1-3.3-4.2-6.1-4.7-6.3-0.4-0.1-0.7-9-0.7-19.7 0-12 0.4-19.7 1-20 0.5-0.3 1-2.4 1-4.8 0-2.3 0.9-12.1 2.1-21.7 1.1-9.6 3.8-26.5 6-37.5 2.2-11 5.7-27.2 7.9-36 2.1-8.8 6-23 8.5-31.5 2.5-8.5 7.6-23.4 11.2-33 3.6-9.6 8.8-22.2 11.5-28 2.7-5.8 6.4-12.5 8.2-15 1.9-2.5 7.1-7.3 11.7-10.6 4.6-3.4 12.4-8.5 17.4-11.3 5-2.8 14.2-7.3 20.5-10 6.3-2.7 16-6.3 21.5-8 5.5-1.7 14.3-4 19.5-5.1 5.2-1.1 13.6-2.7 18.5-3.4 4.9-0.8 10.3-1.5 12-1.5zm-52.5 47.8c-3.6 1.3-10.5 4.4-15.5 6.8-5 2.5-12.1 6.6-15.9 9.1-4.1 2.8-8 6.4-9.5 8.7-1.3 2.2-4.4 8.1-6.7 13-2.4 4.9-6.3 14.4-8.7 21-2.5 6.6-6.1 17.2-8 23.5-2 6.3-5.9 20.3-8.6 31-2.8 10.7-6.6 28.3-8.6 39-1.9 10.7-4.4 26-5.5 34-1 8-2.4 22.4-3 32-1 15.9-0.9 17.7 0.6 20 0.9 1.4 5.8 6.6 10.8 11.5 5 4.9 12.5 11.2 16.6 14 4.1 2.7 11.5 7.1 16.5 9.7 5 2.6 12.8 6.1 17.5 7.8 4.7 1.8 12.5 4.3 17.5 5.6 5 1.3 9.7 2.4 10.5 2.4 0.8 0 3.2-3 5.2-6.5 2.1-3.6 3.7-6.7 3.5-6.9-0.1-0.2-3.8-1.8-8.2-3.5-4.4-1.8-12.5-5.6-18-8.5-5.5-2.9-13.2-7.4-17-9.9-3.8-2.6-7.9-5.4-9-6.2-1.9-1.4-1.7-1.8 7.1-11.7 5-5.7 10.1-11.5 11.5-13l2.4-2.7c10.8 7.5 17.7 11.5 22.3 13.8 4.5 2.2 11.6 5.5 15.7 7.1 4.1 1.6 12.6 4.5 18.8 6.4 6.1 1.9 15.7 4.4 21.2 5.5 5.5 1.1 17.7 2.7 27 3.6 9.3 0.8 22.6 1.5 29.5 1.5 6.9 0 19.7-0.7 28.5-1.5 8.8-0.8 19.6-2.2 24-3.1 4.4-0.8 11.4-2.3 15.5-3.4 4.1-1 11.8-3.3 17-5 5.2-1.8 15.8-6.3 23.5-10.1 7.7-3.7 16.5-8.7 19.5-10.9 3-2.3 5.8-3.8 6.2-3.3 0.3 0.4 5.4 6.2 11.2 12.8 5.8 6.6 10.6 12.2 10.6 12.5 0 0.3-4.8 3.7-10.7 7.6-6 3.9-14.9 9.1-19.8 11.6-4.9 2.5-12.1 5.8-16 7.3-3.9 1.6-7.1 2.9-7.3 2.9-0.1 0.1 1.3 3.1 3.3 6.9 2.3 4.4 4.1 6.7 5.3 6.7 0.9 0 4.4-0.7 7.7-1.6 3.3-0.8 9.6-2.7 14-4.1 4.4-1.4 12.7-4.8 18.5-7.5 5.8-2.7 14.8-7.8 20-11.2 5.2-3.5 12.2-8.8 15.4-11.7 3.3-3 8.2-8.1 10.9-11.4l4.9-6c-1-17.1-2-28.5-2.8-36.5-0.8-8-2.8-22.6-4.5-32.5-1.6-9.9-4.1-23.4-5.4-30-1.3-6.6-4.9-21.2-8-32.5-3.1-11.3-7.4-25.9-9.7-32.5-2.2-6.6-5.6-16.1-7.5-21-2-4.9-5.8-13.5-8.7-18.9-4.3-8.4-5.9-10.6-10.6-14-3-2.3-9.6-6.2-14.5-8.8-4.9-2.6-13.1-6.2-18-8.2-4.9-1.9-14.2-4.8-20.5-6.4-6.3-1.6-11.8-2.7-12.1-2.3-0.4 0.3-1 1.6-1.3 2.8-0.5 2-0.1 2.4 3.6 3.4 2.4 0.5 10.6 3.1 18.3 5.6 7.8 2.6 20.5 7.8 28.7 12 8.2 4 14.8 7.8 14.8 8.3 0 0.5-3.9 7.2-8.7 14.7-4.7 7.6-8.8 13.9-9 14-0.2 0.2-3.6-1.5-7.6-3.6-3.9-2.2-12.1-6-18.2-8.4-6.1-2.4-16.2-5.8-22.5-7.5-6.3-1.8-16-4.1-21.5-5.2-5.5-1.1-15.2-2.7-21.5-3.6-6.3-0.8-18.3-1.7-26.5-2.1-8.6-0.3-21-0.1-29 0.6-7.7 0.6-18.5 1.9-24 2.7-5.5 0.9-15.6 2.9-22.5 4.5-6.9 1.6-17.4 4.5-23.5 6.5-6.1 1.9-16.9 6.4-24 9.9-7.2 3.5-13 6.3-13.1 6.2 0-0.1-4-6.4-8.7-14-4.8-7.5-8.7-14.2-8.7-14.7 0-0.5 6.9-4.4 15.2-8.5 10.2-5 21.3-9.5 33-13.3 16.1-5.2 17.7-5.9 17.2-7.7-0.4-1.1-0.9-2.3-1.3-2.6-0.4-0.4-6 0.8-12.6 2.5-6.6 1.8-14.9 4.2-18.5 5.5zm53.5 106.4c6.1 0.2 9.3 0.9 13.5 2.8 3 1.4 7.5 4 9.8 5.9 2.4 1.9 6.3 6.4 8.7 10 2.4 3.6 5.3 9.4 6.6 13 1.9 5.4 2.3 8.5 2.3 19 0 10.4-0.4 13.6-2.3 19-1.2 3.6-3.8 8.9-5.7 11.7-1.9 2.9-5.3 7.1-7.7 9.4-2.3 2.2-7.1 5.4-10.7 7.2-5.9 2.9-7.3 3.2-16 3.2-8.4 0-10.2-0.4-15.5-2.9-3.5-1.7-8.5-5.5-12.1-9-3.3-3.4-7.2-8.6-8.7-11.6-1.4-3-3.3-8.2-4.2-11.5-0.9-3.4-1.6-10.1-1.6-15.5 0-5.3 0.7-12.1 1.6-15.5 0.9-3.3 2.6-8.3 3.9-11 1.4-2.8 4.4-7.3 6.9-10 2.4-2.8 6.8-6.6 9.8-8.5 3-1.9 7.2-4 9.4-4.7 2.2-0.7 7.6-1.1 12-1zm-8.4 44.7c-0.8 3.4-1.1 7.3-0.6 10 0.3 2.5 1.7 6.2 3.1 8.2 1.3 2.1 3.2 3.8 4.1 3.8 1 0 2.3-0.4 3-0.8 0.6-0.4 2.1-2.7 3.2-5.2 1.3-2.8 2.1-6.6 2.1-10 0-3.2-0.8-7.2-1.9-9.5-1-2.2-2.7-4.8-3.8-5.9-2-1.8-2-1.8-4.9 1-1.9 1.9-3.4 4.8-4.3 8.4zm126.9-44.7c6.7 0.2 9.7 0.8 14 2.9 3 1.4 8 4.8 11 7.6 3.4 3 6.9 7.5 9.2 11.8 2 3.8 4.4 9.6 5.2 12.9 0.9 3.5 1.6 10 1.6 15.5 0 5.4-0.7 12.1-1.6 15.5-0.9 3.3-3 8.7-4.7 12-1.6 3.3-5.5 8.5-8.6 11.6-3.1 3-8.3 6.8-11.6 8.5-5.3 2.5-7.1 2.9-15.5 2.9-8.2 0-10.3-0.4-15-2.6-3-1.4-7.5-4.3-10-6.4-2.5-2-6.4-6.5-8.8-9.9-2.3-3.3-5.2-8.8-6.3-12.1-1.3-3.8-2.3-9.7-2.6-16-0.3-5.5-0.1-12.3 0.5-15 0.6-2.8 2-7.5 3.1-10.5 1.1-3 4-8.3 6.5-11.8 2.7-3.6 7-7.8 10.3-10.1 3.2-2.1 7.8-4.6 10.3-5.5 3.2-1.1 7-1.5 13-1.3zm-6.8 40.6c-1.5 3.4-2 6.2-1.9 11.6 0.2 6.1 0.6 7.7 2.9 10.8 2 2.6 3.5 3.6 5 3.4q2.3-0.2 4.7-4.7c2-3.5 2.5-5.9 2.5-11 0-4.7-0.7-7.7-2.2-10.8-1.2-2.3-3-4.6-4.1-5.1-1.2-0.6-2.3-0.5-3.3 0.2-0.8 0.7-2.4 3.2-3.6 5.6z"/>
</svg>